<svg xmlns="http://www.w3.org/2000/svg" version="1.0" width="116.000000pt" height="116.000000pt" viewBox="0 0 116.000000 116.000000" preserveAspectRatio="xMidYMid meet">
    <metadata>
        Created by potrace 1.16, written by Peter Selinger 2001-2019
    </metadata>
    <g transform="translate(0.000000,116.000000) scale(0.100000,-0.100000)" fill="#000000" stroke="none">
        <path d="M160 860 l0 -140 140 0 140 0 0 140 0 140 -140 0 -140 0 0 -140z m240 0 l0 -100 -100 0 -100 0 0 100 0 100 100 0 100 0 0 -100z"/>
        <path d="M520 980 c0 -13 7 -20 20 -20 13 0 20 -7 20 -20 0 -13 7 -20 20 -20 17 0 20 -7 20 -40 0 -33 3 -40 20 -40 13 0 20 -7 20 -20 0 -13 -7 -20 -20 -20 -13 0 -20 -7 -20 -20 0 -13 -7 -20 -20 -20 -17 0 -20 -7 -20 -40 0 -33 -3 -40 -20 -40 -19 0 -20 7 -20 120 0 113 -1 120 -20 120 -19 0 -20 -7 -20 -120 0 -113 1 -120 20 -120 17 0 20 -7 20 -40 0 -33 -3 -40 -20 -40 -13 0 -20 7 -20 20 0 13 -7 20 -20 20 -13 0 -20 7 -20 20 0 19 -7 20 -100 20 l-100 0 0 -40 c0 -33 3 -40 20 -40 13 0 20 7 20 20 0 13 7 20 20 20 17 0 20 -7 20 -40 0 -33 3 -40 20 -40 17 0 20 7 20 40 l0 40 40 0 c33 0 40 -3 40 -20 0 -13 -7 -20 -20 -20 -13 0 -20 -7 -20 -20 0 -13 7 -20 20 -20 13 0 20 -7 20 -20 0 -17 -7 -20 -40 -20 -33 0 -40 -3 -40 -20 0 -17 7 -20 40 -20 33 0 40 3 40 20 0 13 7 20 20 20 17 0 20 -7 20 -40 0 -33 3 -40 20 -40 13 0 20 -7 20 -20 0 -13 -7 -20 -20 -20 -18 0 -20 -7 -20 -80 l0 -80 40 0 c33 0 40 -3 40 -20 0 -17 -7 -20 -40 -20 -33 0 -40 -3 -40 -20 0 -18 7 -20 60 -20 53 0 60 2 60 20 0 13 7 20 20 20 13 0 20 -7 20 -20 0 -13 7 -20 20 -20 13 0 20 7 20 20 0 17 7 20 40 20 l40 0 0 40 0 40 40 0 c33 0 40 -3 40 -20 0 -13 -7 -20 -20 -20 -17 0 -20 -7 -20 -40 0 -33 3 -40 20 -40 13 0 20 7 20 20 0 17 7 20 40 20 33 0 40 -3 40 -20 0 -13 7 -20 20 -20 13 0 20 7 20 20 0 13 -7 20 -20 20 -13 0 -20 7 -20 20 0 13 -7 20 -20 20 -13 0 -20 7 -20 20 0 13 7 20 20 20 13 0 20 7 20 20 0 13 7 20 20 20 13 0 20 7 20 20 0 13 7 20 20 20 13 0 20 7 20 20 0 13 -7 20 -20 20 -17 0 -20 7 -20 40 l0 40 -40 0 -40 0 0 -40 c0 -33 -3 -40 -20 -40 -13 0 -20 -7 -20 -20 0 -13 7 -20 20 -20 17 0 20 -7 20 -40 0 -33 -3 -40 -20 -40 -13 0 -20 7 -20 20 0 18 -7 20 -60 20 -53 0 -60 2 -60 20 0 13 -7 20 -20 20 -13 0 -20 -7 -20 -20 0 -13 -7 -20 -20 -20 -13 0 -20 7 -20 20 0 17 -7 20 -40 20 l-40 0 0 -40 c0 -33 -3 -40 -20 -40 -18 0 -20 7 -20 60 0 53 2 60 20 60 13 0 20 7 20 20 0 13 7 20 20 20 13 0 20 -7 20 -20 0 -13 7 -20 20 -20 13 0 20 7 20 20 0 13 7 20 20 20 13 0 20 -7 20 -20 0 -13 7 -20 20 -20 13 0 20 7 20 20 0 13 -7 20 -20 20 -17 0 -20 7 -20 40 l0 40 40 0 c33 0 40 3 40 20 0 13 7 20 20 20 17 0 20 7 20 40 l0 40 40 0 c33 0 40 -3 40 -20 0 -13 7 -20 20 -20 13 0 20 -7 20 -20 0 -13 -7 -20 -20 -20 -13 0 -20 -7 -20 -20 0 -17 7 -20 40 -20 l40 0 0 40 c0 33 3 40 20 40 13 0 20 7 20 20 0 17 -7 20 -40 20 -33 0 -40 3 -40 20 0 19 -7 20 -100 20 -93 0 -100 -1 -100 -20 0 -17 -7 -20 -40 -20 -33 0 -40 3 -40 20 0 13 -7 20 -20 20 -17 0 -20 7 -20 40 0 33 3 40 20 40 13 0 20 -7 20 -20 0 -13 7 -20 20 -20 13 0 20 7 20 20 0 13 -7 20 -20 20 -13 0 -20 7 -20 20 0 13 7 20 20 20 13 0 20 7 20 20 0 13 -7 20 -20 20 -18 0 -20 7 -20 60 0 53 -2 60 -20 60 -13 0 -20 7 -20 20 0 17 -7 20 -40 20 -33 0 -40 -3 -40 -20z m80 -360 c0 -13 7 -20 20 -20 13 0 20 -7 20 -20 0 -13 -7 -20 -20 -20 -13 0 -20 7 -20 20 0 13 -7 20 -20 20 -17 0 -20 -7 -20 -40 l0 -40 40 0 40 0 0 -40 c0 -33 -3 -40 -20 -40 -13 0 -20 7 -20 20 0 13 -7 20 -20 20 -13 0 -20 -7 -20 -20 0 -13 -7 -20 -20 -20 -17 0 -20 7 -20 40 0 33 -3 40 -20 40 -13 0 -20 7 -20 20 0 13 -7 20 -20 20 -13 0 -20 7 -20 20 0 13 7 20 20 20 13 0 20 -7 20 -20 0 -13 7 -20 20 -20 13 0 20 7 20 20 0 13 7 20 20 20 13 0 20 7 20 20 0 13 7 20 20 20 13 0 20 -7 20 -20z"/>
        <path d="M720 860 l0 -140 140 0 140 0 0 140 0 140 -140 0 -140 0 0 -140z m240 0 l0 -100 -100 0 -100 0 0 100 0 100 100 0 100 0 0 -100z"/>
        <path d="M160 300 l0 -140 140 0 140 0 0 140 0 140 -140 0 -140 0 0 -140z m240 0 l0 -100 -100 0 -100 0 0 100 0 100 100 0 100 0 0 -100z"/>
    </g>
</svg>
